<svg xmlns="http://www.w3.org/2000/svg" viewBox="0 0 264.8 45.7"><title>AB-logo-DIY</title><polygon points="3.9 39.1 7.8 32.6 0 32.6 3.9 39.1 3.9 39.1" fill="#ffcb05" fill-rule="evenodd"/><polygon points="11.7 39.1 7.8 32.6 15.6 32.6 11.7 39.1 11.7 39.1" fill="#ffcb05" fill-rule="evenodd"/><polygon points="19.5 39.1 23.4 32.6 15.6 32.6 19.5 39.1 19.5 39.1" fill="#ffcb05" fill-rule="evenodd"/><polygon points="7.8 32.6 11.7 26.1 3.9 26.1 7.8 32.6 7.8 32.6" fill="#ffcb05" fill-rule="evenodd"/><polygon points="15.6 32.6 11.7 26.1 19.5 26.1 15.6 32.6 15.6 32.6" fill="#ffcb05" fill-rule="evenodd"/><polygon points="23.4 32.6 27.3 26.1 19.5 26.1 23.4 32.6 23.4 32.6" fill="#ffcb05" fill-rule="evenodd"/><polygon points="11.7 26.1 15.6 19.6 7.8 19.6 11.7 26.1 11.7 26.1" fill="#ffcb05" fill-rule="evenodd"/><polygon points="19.5 26.1 15.6 19.6 23.4 19.6 19.5 26.1 19.5 26.1" fill="#ffcb05" fill-rule="evenodd"/><polygon points="15.6 19.6 11.7 13 19.5 13 15.6 19.6 15.6 19.6" fill="#ffcb05" fill-rule="evenodd"/><polygon points="19.5 0 15.6 6.5 35.1 39.1 42.9 39.1 19.5 0 19.5 0" fill="#16b14b" fill-rule="evenodd"/><polygon points="27.3 39.1 23.4 32.6 31.2 32.6 27.3 39.1 27.3 39.1" fill="#ffcb05" fill-rule="evenodd"/><path d="M625,392.5h-0.2a6.7,6.7,0,0,0-5.2,2.3,9.3,9.3,0,0,0-2.1,6.4,9.6,9.6,0,0,0,1.6,5.7,6.9,6.9,0,0,0,5.9,2.8h0.2a7.3,7.3,0,0,0,4.4-1.2,7.1,7.1,0,0,0,2.5-3.6l-4.2-.7a3.5,3.5,0,0,1-1,1.8,2.5,2.5,0,0,1-1.7.6H625a3.1,3.1,0,0,1-2.2-1.1,4.5,4.5,0,0,1-1-3h10.5q0.1-5-2-7.4A6.8,6.8,0,0,0,625,392.5Zm0,7.2h-3.1a4.1,4.1,0,0,1,.9-2.8,2.9,2.9,0,0,1,2.2-1h0a2.8,2.8,0,0,1,2.2,1,4.2,4.2,0,0,1,.9,2.9H625Z" transform="translate(-504.6 -370.2)" fill="#1d76bb"/><rect x="131.1" y="16.4" width="4.2" height="22.68" fill="#1d76bb"/><path d="M568,386.6h-2.3l-8.5,22.7h4.7l1.8-5.2h8.7l1.9,5.2h4.8l-8.8-22.7H568Zm0,13.7h-3l3-8.4h0l3,8.3h-3Z" transform="translate(-504.6 -370.2)" fill="#1d76bb"/><path d="M594.8,394.3a4.3,4.3,0,0,0-1.7-1.3,6.1,6.1,0,0,0-2.5-.5,6.3,6.3,0,0,0-5.2,2.8v-2.4h-3.9v16.4h4.2v-7.4a15.2,15.2,0,0,1,.3-3.8,3.2,3.2,0,0,1,1.2-1.6,3.2,3.2,0,0,1,2-.6,2.3,2.3,0,0,1,2.3,1.6,13.4,13.4,0,0,1,.3,3.4v8.4h4.2V399.1a13.9,13.9,0,0,0-.2-2.9A4.7,4.7,0,0,0,594.8,394.3Z" transform="translate(-504.6 -370.2)" fill="#1d76bb"/><path d="M610.7,395.2a5.9,5.9,0,0,0-3.7-2.6h-1.1a6.1,6.1,0,0,0-4.8,2.2q-1.9,2.2-1.9,6.3a9.8,9.8,0,0,0,1.5,5.5,5.8,5.8,0,0,0,5.1,2.8l1.3-.2a5.9,5.9,0,0,0,3.4-2.5V409a6.9,6.9,0,0,1-.2,2,2.1,2.1,0,0,1-.8,1.1,4.7,4.7,0,0,1-2.4.5h-0.1a3,3,0,0,1-1.9-.5,1.7,1.7,0,0,1-.5-1.2l-4.8-.6c0,0.2,0,.4,0,0.5a4.5,4.5,0,0,0,1.7,3.6c1.1,0.9,3,1.4,5.6,1.4h0.1a11.5,11.5,0,0,0,3.5-.5,5.9,5.9,0,0,0,2.2-1.3,5.4,5.4,0,0,0,1.3-2.3,15.4,15.4,0,0,0,.5-4.3V392.9h-3.9v2.3Zm-1.3,9.4a3.3,3.3,0,0,1-2.5,1.2h-0.1a3,3,0,0,1-2.4-1.2,6.1,6.1,0,0,1-1-3.8,5.9,5.9,0,0,1,1-3.7,3.1,3.1,0,0,1,2.5-1.2H607a3.2,3.2,0,0,1,2.5,1.2,5.9,5.9,0,0,1,1,3.8A5.6,5.6,0,0,1,609.5,404.5Z" transform="translate(-504.6 -370.2)" fill="#1d76bb"/><path d="M744.1,394.3a4.3,4.3,0,0,0-1.7-1.3,6.1,6.1,0,0,0-2.5-.5,6.2,6.2,0,0,0-5.2,2.8v-2.4h-3.9v16.4h4.2v-7.4a15,15,0,0,1,.3-3.8,3.1,3.1,0,0,1,1.2-1.6,3.2,3.2,0,0,1,2-.6,2.3,2.3,0,0,1,2.3,1.6,13.4,13.4,0,0,1,.3,3.4v8.4h4.2V399.1a13.9,13.9,0,0,0-.2-2.9A4.8,4.8,0,0,0,744.1,394.3Z" transform="translate(-504.6 -370.2)" fill="#1d76bb"/><path d="M767.3,389.7h-0.2l0.6-.3a0.7,0.7,0,0,0,.2-0.5,0.7,0.7,0,0,0-.1-0.4l-0.3-.3h-1.7v2.8h0.4v-1.2h0.6l0.5,0.6,0.2,0.4h0.5l-0.3-.5Zm-0.6-.5h-0.5v-0.8h1.2v0.2a0.4,0.4,0,0,1-.1.3h-0.5Z" transform="translate(-504.6 -370.2)" fill="#1d76bb"/><rect x="217.7" y="16.4" width="4.2" height="4.02" fill="#1d76bb"/><path d="M760,395.2a5.9,5.9,0,0,0-3.7-2.6h-1.1a6.1,6.1,0,0,0-4.8,2.2q-1.9,2.2-1.9,6.3a9.8,9.8,0,0,0,1.5,5.5,5.8,5.8,0,0,0,5.1,2.8l1.3-.2a5.9,5.9,0,0,0,3.4-2.5V409a6.7,6.7,0,0,1-.2,2,2.1,2.1,0,0,1-.8,1.1,4.7,4.7,0,0,1-2.4.5h0a3,3,0,0,1-1.9-.5,1.7,1.7,0,0,1-.5-1.2l-4.8-.6c0,0.2,0,.4,0,0.5a4.5,4.5,0,0,0,1.7,3.6c1.1,0.9,3,1.4,5.6,1.4h0.1a11.5,11.5,0,0,0,3.5-.5,5.9,5.9,0,0,0,2.2-1.3,5.5,5.5,0,0,0,1.3-2.3,15.4,15.4,0,0,0,.5-4.3V392.9H760v2.3Zm-1.2,9.4a3.3,3.3,0,0,1-2.5,1.2h-0.1a3,3,0,0,1-2.4-1.2,6.1,6.1,0,0,1-1-3.8,5.8,5.8,0,0,1,1-3.7,3.1,3.1,0,0,1,2.5-1.2h0.1a3.1,3.1,0,0,1,2.5,1.2,5.9,5.9,0,0,1,1,3.8A5.6,5.6,0,0,1,758.8,404.5Z" transform="translate(-504.6 -370.2)" fill="#1d76bb"/><path d="M769.1,388.1a2.4,2.4,0,0,0-1-1,2.6,2.6,0,0,0-2.5,0,2.4,2.4,0,0,0-1,1,2.6,2.6,0,0,0-.3,1.3,2.6,2.6,0,0,0,.3,1.3,2.4,2.4,0,0,0,1,1,2.6,2.6,0,0,0,2.6,0,2.4,2.4,0,0,0,1-1,2.6,2.6,0,0,0,.3-1.3A2.6,2.6,0,0,0,769.1,388.1Zm-0.4,2.4a2,2,0,0,1-.8.8l-1.1.3-1.1-.3a2,2,0,0,1-.8-0.8,2.1,2.1,0,0,1,0-2.2,2,2,0,0,1,.8-0.8l1.1-.3,1.1,0.3a2,2,0,0,1,.8.8A2.2,2.2,0,0,1,768.7,390.5Z" transform="translate(-504.6 -370.2)" fill="#1d76bb"/><path d="M693.9,392.5h0a8.4,8.4,0,0,0-4.2,1.1,7.2,7.2,0,0,0-2.9,3.1,9.1,9.1,0,0,0-1,4.2,10.3,10.3,0,0,0,1,4.8,6.9,6.9,0,0,0,3,3,8.9,8.9,0,0,0,4.1,1h0a7.7,7.7,0,0,0,5.8-2.5A8.6,8.6,0,0,0,702,401a8.5,8.5,0,0,0-2.3-6.1A7.8,7.8,0,0,0,693.9,392.5Zm2.8,12.3a3.5,3.5,0,0,1-2.7,1.3h0a3.5,3.5,0,0,1-2.8-1.3,6.8,6.8,0,0,1,0-7.5,3.5,3.5,0,0,1,2.8-1.3h0a3.5,3.5,0,0,1,2.7,1.3,5.6,5.6,0,0,1,1.1,3.7A5.7,5.7,0,0,1,696.6,404.8Z" transform="translate(-504.6 -370.2)" fill="#1d76bb"/><path d="M680.3,393a7.2,7.2,0,0,0-1.8,2.2v-2.3h-3.9v16.4h4.2v-5.1a27.1,27.1,0,0,1,.3-5.5,3.4,3.4,0,0,1,1-1.8,2.2,2.2,0,0,1,1.5-.5,3.6,3.6,0,0,1,2,.7l1.3-3.8a5.1,5.1,0,0,0-2.8-.8A3.3,3.3,0,0,0,680.3,393Z" transform="translate(-504.6 -370.2)" fill="#1d76bb"/><path d="M666.9,397.2a5.2,5.2,0,0,0,2.2-2,5.4,5.4,0,0,0,.8-2.9,5.2,5.2,0,0,0-.7-2.7,5.5,5.5,0,0,0-3.9-2.8,23.8,23.8,0,0,0-3.9-.2h-8.7v22.7h12.8a5.8,5.8,0,0,0,4.9-3.4,7.1,7.1,0,0,0,.7-3,5.7,5.7,0,0,0-1.1-3.4A5.8,5.8,0,0,0,666.9,397.2Zm-9.8-6.9h6.3a2.5,2.5,0,0,1,1.7.8,2.6,2.6,0,0,1,.6,1.7,2.5,2.5,0,0,1-.6,1.8,2.9,2.9,0,0,1-1.8.8h-6.1v-5.2Zm8.7,14a2.7,2.7,0,0,1-1.6.9h-7.1v-6.1h4.3a12.1,12.1,0,0,1,3.2.3,2.7,2.7,0,0,1,1.4,1,3.1,3.1,0,0,1,.5,1.7A2.9,2.9,0,0,1,665.9,404.4Z" transform="translate(-504.6 -370.2)" fill="#1d76bb"/><polygon points="214.8 22.7 209.7 22.7 204.7 28.4 204.7 16.4 200.6 16.4 200.6 39.1 204.7 39.1 204.7 33.8 206.7 31.7 210.7 39.1 215.2 39.1 209.4 28.6 214.8 22.7" fill="#1d76bb"/><rect x="217.7" y="22.7" width="4.2" height="16.43" fill="#1d76bb"/></svg>